:FULLY-SPECIFIED
:FORCE-ALL-JOINTS-BE-3DOF
:DEGREES
1020
root 0.249929 13.5522 -35.3933 12.2199 -28.3134 -17.6674
lfemur -69.9034 36.0264 -4.05142
ltibia 82.2528 -0 0
lfoot -12.7868 -8.3563 0.00215826
ltoes -6.14048 0 0
rfemur 10.1873 -8.65907 8.61819
rtibia 36.4421 -0 0
rfoot -22.5461 -26.1572 0.000170126
rtoes -31.6576 0 0
lowerback 10.2883 -0.83168 5.42453
upperback -1.76003 0.106377 8.16992
thorax -7.7094 -0.024048 5.68266
lowerneck -5.17736 8.31917 3.45732
upperneck 7.99005 10.9371 -0.954234
head 3.78151 5.47722 -0.355208
lclavicle -6.97237e-014 5.08889e-014 0
lhumerus 83.4247 -9.76925 26.9527
lradius 95.9745 -0 0
lwrist 10.2125 0 0
lhand -36.7577 30.6417 -0.00875373
lfingers 7.12502 -0 0
lthumb -9.84101 60.3935 -0.00868833
rclavicle -6.97237e-014 5.08889e-014 0
rhumerus -77.4088 22.9056 -94.975
rradius 112.027 -0 0
rwrist -63.1457 0 0
rhand -10.2732 -25.2197 0.000288165
rfingers 7.12502 -0 0
rthumb 15.7205 -54.6011 0.000277871
1021
root 0.248651 13.5484 -35.3853 12.2334 -28.2901 -17.664
lfemur -69.9546 36.0465 -4.07873
ltibia 82.3266 -0 0
lfoot -12.8424 -8.3825 0.00200096
ltoes -6.12025 0 0
rfemur 10.2314 -8.66071 8.61058
rtibia 36.3988 -0 0
rfoot -22.5408 -26.1668 0.000187611
rtoes -31.654 0 0
lowerback 10.2651 -0.830294 5.39634
upperback -1.77724 0.103956 8.17017
thorax -7.71452 -0.0238607 5.69939
lowerneck -5.1381 8.32983 3.43317
upperneck 7.98804 10.9555 -0.962012
head 3.7725 5.48557 -0.354711
lclavicle -6.97237e-014 5.08889e-014 0
lhumerus 83.3937 -9.18654 27.1589
lradius 95.706 -0 0
lwrist 10.0805 0 0
lhand -36.7536 30.5091 -0.00806148
lfingers 7.12502 -0 0
lthumb -9.83701 60.2609 -0.00800028
rclavicle -6.97237e-014 5.08889e-014 0
rhumerus -77.4475 22.9673 -95.0035
rradius 112.008 -0 0
rwrist -63.1621 0 0
rhand -10.265 -25.1814 0.000281716
rfingers 7.12502 -0 0
rthumb 15.7284 -54.5622 0.000271749
1022
root 0.247372 13.5447 -35.3773 12.2467 -28.2674 -17.6609
lfemur -70.0045 36.066 -4.10428
ltibia 82.3997 -0 0
lfoot -12.8972 -8.40901 0.00180286
ltoes -6.09807 0 0
rfemur 10.2743 -8.66324 8.60289
rtibia 36.3576 -0 0
rfoot -22.5369 -26.1757 0.0002011
rtoes -31.6491 0 0
lowerback 10.2424 -0.829254 5.36902
upperback -1.79387 0.101197 8.17054
thorax -7.71929 -0.0238792 5.71582
lowerneck -5.09635 8.34011 3.41021
upperneck 7.98395 10.9735 -0.971424
head 3.76248 5.49369 -0.355117
lclavicle -6.97237e-014 5.08889e-014 0
lhumerus 83.3634 -8.62677 27.3673
lradius 95.435 -0 0
lwrist 9.9572 0 0
lhand -36.7452 30.3843 -0.00721748
lfingers 7.12502 -0 0
lthumb -9.8289 60.1363 -0.00716218
rclavicle -6.97237e-014 5.08889e-014 0
rhumerus -77.4856 23.028 -95.0316
rradius 111.99 -0 0
rwrist -63.1787 0 0
rhand -10.2566 -25.1449 0.0002678
rfingers 7.12502 -0 0
rthumb 15.7365 -54.5251 0.000258393
1023
root 0.246094 13.5409 -35.3693 12.2597 -28.2456 -17.6581
lfemur -70.0525 36.085 -4.1278
ltibia 82.4719 -0 0
lfoot -12.9511 -8.43522 0.00157257
ltoes -6.0747 0 0
rfemur 10.3158 -8.66664 8.5948
rtibia 36.3191 -0 0
rfoot -22.5347 -26.1838 0.00020912
rtoes -31.6424 0 0
lowerback 10.2205 -0.828477 5.34273
upperback -1.80968 0.0982135 8.17089
thorax -7.72355 -0.0240594 5.73165
lowerneck -5.05243 8.34978 3.389
upperneck 7.97755 10.9907 -0.982517
head 3.75147 5.50141 -0.356537
lclavicle -6.97237e-014 5.08889e-014 0
lhumerus 83.3341 -8.08777 27.577
lradius 95.1632 -0 0
lwrist 9.84244 0 0
lhand -36.733 30.2682 -0.00625667
lfingers 7.12502 -0 0
lthumb -9.81713 60.0206 -0.00620877
rclavicle -6.97237e-014 5.08889e-014 0
rhumerus -77.5225 23.0868 -95.0591
rradius 111.973 -0 0
rwrist -63.1954 0 0
rhand -10.2481 -25.1107 0.00024691
rfingers 7.12502 -0 0
rthumb 15.7447 -54.4902 0.000238275
1024
root 0.244816 13.5371 -35.3614 12.272 -28.2254 -17.6556
lfemur -70.0982 36.1035 -4.14898
ltibia 82.5432 -0 0
lfoot -13.0043 -8.46051 0.00131974
ltoes -6.05093 0 0
rfemur 10.3555 -8.67091 8.58601
rtibia 36.2839 -0 0
rfoot -22.5346 -26.1907 0.000210159
rtoes -31.6336 0 0
lowerback 10.1993 -0.827879 5.31762
upperback -1.82445 0.0951169 8.17104
thorax -7.72713 -0.0243578 5.74658
lowerneck -5.00669 8.35859 3.37005
upperneck 7.9686 11.0067 -0.995341
head 3.73948 5.50857 -0.359085
lclavicle -6.97237e-014 5.08889e-014 0
lhumerus 83.3062 -7.56741 27.7876
lradius 94.8927 -0 0
lwrist 9.73611 0 0
lhand -36.7175 30.1618 -0.00521803
lfingers 7.12502 -0 0
lthumb -9.80214 59.9147 -0.00517865
rclavicle -6.97237e-014 5.08889e-014 0
rhumerus -77.5577 23.1427 -95.0856
rradius 111.956 -0 0
rwrist -63.212 0 0
rhand -10.2396 -25.0793 0.000219825
rfingers 7.12502 -0 0
rthumb 15.7529 -54.4582 0.000212149
